<svg width="15" height="12" viewBox="0 0 15 12" fill="none" xmlns="http://www.w3.org/2000/svg">
<g id="Frame 18458" clip-path="url(#clip0_2135_108)">
<path id="Vector" d="M13.0006 11.9909C12.935 11.9911 12.8699 11.9782 12.8093 11.953C12.7486 11.9278 12.6935 11.8909 12.6472 11.8444L1.64719 0.844386C1.55738 0.749855 1.50805 0.62398 1.50972 0.493599C1.51139 0.363218 1.56392 0.238647 1.65612 0.146446C1.74832 0.0542458 1.87289 0.00171031 2.00327 4.10257e-05C2.13365 -0.00162826 2.25953 0.0477008 2.35406 0.137511L13.3541 11.1375C13.4239 11.2074 13.4715 11.2965 13.4908 11.3935C13.5101 11.4904 13.5002 11.5909 13.4623 11.6823C13.4245 11.7736 13.3605 11.8517 13.2783 11.9066C13.1961 11.9616 13.0995 11.9909 13.0006 11.9909ZM7.49 9.99095C6.19344 9.99095 4.94312 9.6072 3.77375 8.85032C2.70906 8.16282 1.75062 7.17814 1.00187 6.00657V6.00407C1.625 5.11126 2.3075 4.35626 3.04062 3.74751C3.04726 3.74197 3.05266 3.73511 3.05651 3.72736C3.06036 3.71962 3.06255 3.71117 3.06297 3.70253C3.06338 3.6939 3.06199 3.68527 3.0589 3.6772C3.05581 3.66913 3.05107 3.66179 3.045 3.65564L2.4225 3.03407C2.41144 3.02292 2.39658 3.01634 2.38089 3.01565C2.36519 3.01495 2.34982 3.02019 2.33781 3.03032C1.55906 3.68657 0.836248 4.49157 0.179061 5.43407C0.0659935 5.59636 0.00372292 5.78859 0.00016176 5.98634C-0.0033994 6.1841 0.0519097 6.37845 0.159061 6.5447C0.984373 7.83626 2.04656 8.92407 3.23031 9.69001C4.56312 10.5534 5.9975 10.9909 7.49 10.9909C8.29561 10.9885 9.09552 10.8557 9.85875 10.5978C9.86882 10.5944 9.87785 10.5885 9.88499 10.5806C9.89213 10.5727 9.89714 10.5632 9.89955 10.5528C9.90196 10.5424 9.90168 10.5316 9.89876 10.5214C9.89583 10.5112 9.89034 10.5019 9.88281 10.4944L9.20844 9.82001C9.19291 9.80487 9.17371 9.79402 9.15273 9.78854C9.13174 9.78306 9.1097 9.78314 9.08875 9.78876C8.56648 9.92325 8.02931 9.99118 7.49 9.99095ZM14.8394 5.4472C14.0125 4.16845 12.9397 3.0822 11.7372 2.30564C10.4069 1.44564 8.93812 0.990948 7.49 0.990948C6.69292 0.992339 5.90177 1.12788 5.14969 1.39189C5.13967 1.39537 5.1307 1.40135 5.12363 1.40926C5.11656 1.41717 5.11162 1.42675 5.10927 1.4371C5.10693 1.44745 5.10725 1.45822 5.11023 1.46841C5.1132 1.4786 5.11871 1.48786 5.12625 1.49532L5.79969 2.16876C5.81536 2.18417 5.83483 2.19518 5.85612 2.20066C5.8774 2.20615 5.89976 2.20592 5.92094 2.20001C6.43249 2.06162 6.96006 1.99133 7.49 1.99095C8.76156 1.99095 10.0081 2.37939 11.1947 3.1472C12.2794 3.8472 13.2491 4.83095 13.9997 5.99095C14.0002 5.99166 14.0005 5.99254 14.0005 5.99345C14.0005 5.99435 14.0002 5.99523 13.9997 5.99595C13.4548 6.85374 12.7787 7.62068 11.9959 8.26876C11.9892 8.27428 11.9838 8.28114 11.9799 8.2889C11.9759 8.29666 11.9737 8.30515 11.9733 8.31382C11.9728 8.32249 11.9742 8.33117 11.9773 8.33928C11.9804 8.34739 11.9851 8.35477 11.9912 8.36095L12.6131 8.98251C12.6241 8.99362 12.6389 9.0002 12.6545 9.00095C12.6701 9.00171 12.6855 8.99658 12.6975 8.98657C13.5331 8.28298 14.2565 7.45595 14.8425 6.53407C14.9461 6.37162 15.0009 6.18284 15.0003 5.99018C14.9997 5.79751 14.9439 5.60905 14.8394 5.4472Z" fill="#98A2B3"/>
<path id="Vector_2" d="M7.50063 2.99097C7.27592 2.99088 7.05191 3.01603 6.83282 3.06597C6.82175 3.06826 6.81152 3.07352 6.8032 3.08117C6.79489 3.08883 6.7888 3.09859 6.78559 3.10943C6.78239 3.12027 6.78218 3.13177 6.78499 3.14272C6.78781 3.15366 6.79354 3.16364 6.80157 3.17159L10.32 6.68909C10.328 6.69713 10.3379 6.70286 10.3489 6.70567C10.3598 6.70848 10.3713 6.70827 10.3822 6.70507C10.393 6.70186 10.4028 6.69578 10.4104 6.68746C10.4181 6.67914 10.4233 6.66891 10.4256 6.65784C10.5258 6.21848 10.5257 5.76219 10.4254 5.32287C10.325 4.88355 10.127 4.47248 9.84595 4.1202C9.56493 3.76791 9.20817 3.48346 8.80214 3.28796C8.39612 3.09247 7.95127 2.99096 7.50063 2.99097ZM4.68126 5.29284C4.67331 5.28481 4.66333 5.27908 4.65238 5.27627C4.64144 5.27345 4.62993 5.27366 4.6191 5.27687C4.60826 5.28007 4.59849 5.28616 4.59084 5.29447C4.58319 5.30279 4.57793 5.31303 4.57563 5.32409C4.4623 5.8192 4.47653 6.33498 4.61699 6.82308C4.75745 7.31119 5.01953 7.75564 5.37868 8.11479C5.73783 8.47394 6.18228 8.73603 6.67039 8.87648C7.1585 9.01694 7.67427 9.03117 8.16938 8.91784C8.18045 8.91554 8.19068 8.91029 8.199 8.90263C8.20732 8.89498 8.2134 8.88522 8.21661 8.87438C8.21981 8.86354 8.22002 8.85204 8.21721 8.84109C8.2144 8.83014 8.20867 8.82017 8.20063 8.81222L4.68126 5.29284Z" fill="#98A2B3"/>
</g>
<defs>
<clipPath id="clip0_2135_108">
<rect width="15" height="12" fill="white"/>
</clipPath>
</defs>
</svg>
