<svg width="20" height="20" viewBox="0 0 20 20" fill="none" xmlns="http://www.w3.org/2000/svg">
<g id="icon">
<path id="Vector" fill-rule="evenodd" clip-rule="evenodd" d="M5.33333 4C4.97971 4 4.64057 4.14048 4.39052 4.39052C4.14048 4.64057 4 4.97971 4 5.33333V14.6667C4 15.0203 4.14048 15.3594 4.39052 15.6095C4.64057 15.8595 4.97971 16 5.33333 16H14.6667C15.0203 16 15.3594 15.8595 15.6095 15.6095C15.8595 15.3594 16 15.0203 16 14.6667V5.33333C16 4.97971 15.8595 4.64057 15.6095 4.39052C15.3594 4.14048 15.0203 4 14.6667 4H5.33333ZM5.33333 5.33333H14.6667V14.6667H5.33333V5.33333ZM13.3 8.53C13.3637 8.4685 13.4145 8.39494 13.4494 8.3136C13.4843 8.23227 13.5027 8.14479 13.5035 8.05627C13.5043 7.96775 13.4874 7.87996 13.4539 7.79803C13.4204 7.7161 13.3709 7.64166 13.3083 7.57907C13.2457 7.51647 13.1712 7.46697 13.0893 7.43345C13.0074 7.39993 12.9196 7.38306 12.8311 7.38383C12.7425 7.3846 12.6551 7.40299 12.5737 7.43793C12.4924 7.47287 12.4188 7.52366 12.3573 7.58733L9.05733 10.8873L7.64333 9.47333C7.58144 9.41139 7.50795 9.36225 7.42706 9.32871C7.34617 9.29517 7.25947 9.2779 7.1719 9.27787C6.99506 9.2778 6.82543 9.348 6.70033 9.473C6.57524 9.59801 6.50493 9.76758 6.50487 9.94443C6.5048 10.1213 6.57499 10.2909 6.7 10.416L8.53867 12.2547C8.60677 12.3228 8.68763 12.3768 8.77662 12.4137C8.86561 12.4506 8.961 12.4696 9.05733 12.4696C9.15367 12.4696 9.24905 12.4506 9.33805 12.4137C9.42704 12.3768 9.5079 12.3228 9.576 12.2547L13.3 8.53Z" fill="#7A828F"/>
</g>
</svg>
