<svg width="11" height="21" viewBox="0 0 11 21" fill="none" xmlns="http://www.w3.org/2000/svg">
<path id="Vector" d="M10.7044 1.77057C10.7988 1.67039 10.8726 1.55253 10.9216 1.42375C10.9706 1.29496 10.9939 1.15775 10.99 1.01996C10.9861 0.882178 10.9552 0.746509 10.899 0.620702C10.8428 0.494896 10.7625 0.381417 10.6625 0.286743C10.5626 0.19207 10.4451 0.118056 10.3166 0.068929C10.1882 0.0198016 10.0513 -0.00347802 9.91388 0.000419756C9.77645 0.00431753 9.64114 0.0353162 9.51566 0.0916458C9.39018 0.147975 9.277 0.228533 9.18257 0.328719L0.286093 9.77318C0.102368 9.96801 0 10.226 0 10.4941C0 10.7622 0.102368 11.0202 0.286093 11.215L9.18257 20.6605C9.27637 20.7629 9.38953 20.8456 9.51547 20.9037C9.64141 20.9619 9.77762 20.9944 9.91619 20.9993C10.0548 21.0043 10.1929 20.9816 10.3227 20.9325C10.4524 20.8834 10.5711 20.809 10.6719 20.7136C10.7728 20.6181 10.8537 20.5036 10.9099 20.3765C10.9662 20.2495 10.9967 20.1125 10.9998 19.9735C11.0028 19.8345 10.9782 19.6963 10.9275 19.5669C10.8768 19.4375 10.801 19.3195 10.7044 19.2197L2.48614 10.4941L10.7044 1.77057Z" fill="black"/>
</svg>
