<svg width="20" height="20" viewBox="0 0 20 20" fill="none" xmlns="http://www.w3.org/2000/svg">
<g id="icon">
<path id="Vector" d="M4 6.4V13.6C4 14.44 4 14.86 4.1635 15.181C4.30731 15.4632 4.53677 15.6927 4.819 15.8365C5.13925 16 5.55925 16 6.39775 16H13.6022C14.4407 16 14.86 16 15.1802 15.8365C15.463 15.6925 15.6925 15.463 15.8365 15.181C16 14.86 16 14.4415 16 13.603V6.39775C16 5.55925 16 5.13925 15.8365 4.819C15.6925 4.53666 15.4628 4.30718 15.1802 4.1635C14.86 4 14.44 4 13.6 4H6.4C5.56 4 5.14 4 4.819 4.1635C4.53677 4.30731 4.30731 4.53677 4.1635 4.819C4 5.14 4 5.56 4 6.4Z" stroke="#C5C5C5" stroke-width="1.2" stroke-linecap="round" stroke-linejoin="round"/>
</g>
</svg>
